<?xml version="1.0" encoding="UTF-8" standalone="no"?>
<!-- Created with Inkscape (http://www.inkscape.org/) -->

<svg
   xmlns:dc="http://purl.org/dc/elements/1.1/"
   xmlns:cc="http://creativecommons.org/ns#"
   xmlns:rdf="http://www.w3.org/1999/02/22-rdf-syntax-ns#"
   xmlns:svg="http://www.w3.org/2000/svg"
   xmlns="http://www.w3.org/2000/svg"
   xmlns:sodipodi="http://sodipodi.sourceforge.net/DTD/sodipodi-0.dtd"
   xmlns:inkscape="http://www.inkscape.org/namespaces/inkscape"
   width="558.64868"
   height="327.68448"
   id="svg2"
   version="1.1"
   inkscape:version="0.48.3.1 r9886"
   sodipodi:docname="latex_stack.svg">
  <sodipodi:namedview
     id="base"
     pagecolor="#ffffff"
     bordercolor="#666666"
     borderopacity="1.0"
     inkscape:pageopacity="0.0"
     inkscape:pageshadow="2"
     inkscape:zoom="0.7"
     inkscape:cx="377.88982"
     inkscape:cy="240.93856"
     inkscape:document-units="px"
     inkscape:current-layer="layer1"
     showgrid="false"
     inkscape:window-width="1366"
     inkscape:window-height="718"
     inkscape:window-x="0"
     inkscape:window-y="0"
     inkscape:window-maximized="1"
     showguides="true"
     inkscape:guide-bbox="true"
     fit-margin-top="0"
     fit-margin-left="0"
     fit-margin-right="0"
     fit-margin-bottom="0">
    <sodipodi:guide
       orientation="1,0"
       position="1.5323827,182.34968"
       id="guide3066" />
    <sodipodi:guide
       orientation="1,0"
       position="557.11629,227.80654"
       id="guide3068" />
    <sodipodi:guide
       orientation="0,1"
       position="-20.690973,224.77622"
       id="guide3131" />
    <sodipodi:guide
       orientation="0,1"
       position="-21.701126,264.17203"
       id="guide3223" />
  </sodipodi:namedview>
  <defs
     id="defs4" />
  <metadata
     id="metadata7">
    <rdf:RDF>
      <cc:Work
         rdf:about="">
        <dc:format>image/svg+xml</dc:format>
        <dc:type
           rdf:resource="http://purl.org/dc/dcmitype/StillImage" />
        <dc:title />
      </cc:Work>
    </rdf:RDF>
  </metadata>
  <g
     inkscape:label="Ebene 1"
     inkscape:groupmode="layer"
     id="layer1"
     transform="translate(-20.690973,-546.40291)">
    <g
       transform="translate(-50.185632,480.09431)"
       id="g2990">
      <g
         style="font-style:normal;font-variant:normal;font-weight:normal;font-stretch:normal;letter-spacing:normal;word-spacing:normal;text-anchor:start;fill:none;stroke:#000000;stroke-linecap:butt;stroke-linejoin:miter;stroke-miterlimit:10.43299961;stroke-opacity:1;stroke-dasharray:none;stroke-dashoffset:0"
         id="content"
         transform="matrix(1.0629921,0,0,-1.0629921,-186.02362,789.27165)"
         xml:space="preserve"
         stroke-miterlimit="10.433"
         font-style="normal"
         font-variant="normal"
         font-weight="normal"
         font-stretch="normal"
         font-size-adjust="none"
         letter-spacing="normal"
         word-spacing="normal"><path
           style="fill:#000000;stroke-width:0"
           inkscape:connector-curvature="0"
           d="m 488.71,439.93 h -30.46 l -0.93,-11.22 h 1.25 c 0.68,8.04 1.43,9.68 8.95,9.68 0.91,0 2.2,0 2.7,-0.11 1.05,-0.19 1.05,-0.74 1.05,-1.89 v -26.25 c 0,-1.71 0,-2.39 -5.23,-2.39 h -2 v -1.55 c 2.04,0.16 7.12,0.16 9.42,0.16 2.29,0 7.42,0 9.47,-0.16 v 1.55 h -2 c -5.24,0 -5.24,0.68 -5.24,2.39 v 26.25 c 0,1 0,1.7 0.91,1.89 0.54,0.11 1.89,0.11 2.84,0.11 7.52,0 8.27,-1.64 8.95,-9.68 h 1.25 z"
           id="path2993" /><path
           style="fill:#000000;stroke-width:0"
           inkscape:connector-curvature="0"
           d="m 490.02,399.29 0,-0.17 0,-0.15 -0.01,-0.15 0,-0.15 -0.01,-0.13 -0.02,-0.13 -0.01,-0.13 -0.03,-0.12 -0.03,-0.11 -0.03,-0.1 -0.05,-0.1 -0.05,-0.09 -0.06,-0.09 -0.07,-0.08 -0.07,-0.08 -0.09,-0.07 -0.1,-0.06 -0.12,-0.06 -0.06,-0.03 -0.06,-0.03 -0.07,-0.02 -0.07,-0.03 -0.07,-0.02 -0.08,-0.02 -0.08,-0.02 -0.09,-0.02 -0.09,-0.02 -0.09,-0.02 -0.1,-0.02 -0.1,-0.01 -0.1,-0.02 -0.11,-0.01 -0.12,-0.01 -0.11,-0.01 -0.13,-0.01 -0.12,-0.01 -0.13,-0.01 -0.14,-0.01 -0.14,0 -0.15,-0.01 -0.15,0 -0.15,-0.01 -0.16,0 -0.17,0 -0.17,0 -0.18,0 h -1.2 v -1.55 h 28.75 l 2.09,12.86 h -1.25 c -1.23,-7.67 -2.39,-11.31 -10.95,-11.31 h -6.63 c -2.34,0 -2.45,0.34 -2.45,1.98 v 13.31 h 4.49 c 4.84,0 5.39,-1.59 5.39,-5.83 h 1.23 v 13.21 h -1.23 c 0,-4.3 -0.55,-5.83 -5.39,-5.83 h -4.49 v 11.95 c 0,1.64 0.11,1.99 2.45,1.99 h 6.43 c 7.62,0 8.96,-2.74 9.76,-9.66 h 1.25 l -1.4,11.2 h -28.05 v -1.54 h 1.2 c 3.83,0 3.94,-0.55 3.94,-2.33 z"
           id="path2995" /><path
           style="fill:#000000;stroke-width:0"
           inkscape:connector-curvature="0"
           d="m 530.99,425.43 6.83,10.02 c 1.09,1.59 2.78,3.19 7.22,3.23 v 1.55 c -1.94,-0.05 -4.28,-0.16 -5.53,-0.16 -1.99,0 -4.39,0 -6.38,0.16 v -1.55 c 1.99,-0.04 3.1,-1.14 3.1,-2.29 0,-0.5 -0.11,-0.6 -0.46,-1.14 l -5.68,-8.43 -6.43,9.61 c -0.09,0.16 -0.34,0.57 -0.34,0.75 0,0.61 1.09,1.46 3.23,1.5 v 1.55 c -1.75,-0.16 -5.37,-0.16 -7.28,-0.16 -1.53,0 -4.62,0.05 -6.47,0.16 v -1.55 h 0.96 c 2.73,0 3.69,-0.34 4.62,-1.75 l 9.17,-13.84 -8.17,-12.06 c -0.7,-0.99 -2.18,-3.28 -7.22,-3.28 v -1.55 c 1.79,0.05 3.88,0.16 5.52,0.16 1.84,0 4.59,0 6.39,-0.16 v 1.55 c -2.3,0.04 -3.14,1.39 -3.14,2.29 0,0.44 0.14,0.64 0.5,1.19 l 7.06,10.47 7.88,-11.91 c 0.11,-0.2 0.25,-0.4 0.25,-0.54 0,-0.61 -1.1,-1.46 -3.24,-1.5 v -1.55 c 1.74,0.16 5.38,0.16 7.27,0.16 2.09,0 4.39,-0.07 6.48,-0.16 v 1.55 h -0.95 c -2.58,0 -3.63,0.25 -4.67,1.79 z"
           id="path2997" /></g>    </g>
    <g
       id="g3017"
       transform="translate(-66.670068,370.72599)">
      <g
         word-spacing="normal"
         letter-spacing="normal"
         font-size-adjust="none"
         font-stretch="normal"
         font-weight="normal"
         font-variant="normal"
         font-style="normal"
         stroke-miterlimit="10.433"
         xml:space="preserve"
         transform="matrix(1.0629921,0,0,-1.0629921,-186.02362,789.27165)"
         id="g3019"
         style="font-style:normal;font-variant:normal;font-weight:normal;font-stretch:normal;letter-spacing:normal;word-spacing:normal;text-anchor:start;fill:none;stroke:#000000;stroke-linecap:butt;stroke-linejoin:miter;stroke-miterlimit:10.43299961;stroke-opacity:1;stroke-dasharray:none;stroke-dashoffset:0"><path
           id="path3021"
           d="m 484.52,419.06 h -1.25 c -0.55,-5.1 -1.25,-11.31 -10.02,-11.31 h -4.07 c -2.35,0 -2.46,0.34 -2.46,1.98 v 26.56 c 0,1.69 0,2.39 4.74,2.39 h 1.65 v 1.55 c -1.79,-0.16 -6.32,-0.16 -8.37,-0.16 -1.94,0 -5.83,0 -7.58,0.16 v -1.55 h 1.2 c 3.83,0 3.94,-0.54 3.94,-2.34 v -26.25 c 0,-1.8 -0.11,-2.34 -3.94,-2.34 h -1.2 v -1.55 h 25.95 z"
           inkscape:connector-curvature="0"
           style="fill:#000000;stroke-width:0" /><path
           id="path3023"
           d="m 484.36,440.45 -0.02,0.05 -0.02,0.04 -0.02,0.05 -0.01,0.05 -0.02,0.04 -0.02,0.04 -0.02,0.04 -0.02,0.04 -0.01,0.04 -0.02,0.03 -0.02,0.04 -0.02,0.03 -0.02,0.03 -0.03,0.03 -0.02,0.02 -0.03,0.03 -0.02,0.02 -0.03,0.02 -0.03,0.03 -0.03,0.01 -0.03,0.02 -0.03,0.02 -0.04,0.01 -0.04,0.01 -0.04,0.02 -0.04,0.01 -0.05,0 -0.05,0.01 -0.05,0.01 -0.05,0 -0.06,0 -0.06,0 c -0.67,0 -0.77,-0.25 -0.98,-0.79 l -8.05,-20.4 c -0.34,-0.87 -0.94,-2.4 -4.08,-2.4 v -1.25 c 1.19,0.11 2.41,0.14 3.6,0.14 1.39,0 3.96,-0.14 4.18,-0.14 v 1.25 c -1.53,0 -2.51,0.7 -2.51,1.67 0,0.28 0.03,0.36 0.17,0.7 l 1.67,4.28 0.5,1.27 4.45,11.31 4.46,-11.31 h -8.91 l -0.5,-1.27 h 9.91 l 2.01,-5.07 c 0.07,-0.19 0.17,-0.43 0.17,-0.6 0,-0.98 -1.87,-0.98 -2.82,-0.98 v -1.25 c 1.75,0.06 3.98,0.14 5.2,0.14 1.64,0 4.25,-0.11 4.62,-0.14 v 1.25 h -0.68 c -2.35,0 -2.58,0.36 -2.97,1.33 z"
           inkscape:connector-curvature="0"
           style="fill:#000000;stroke-width:0" /><path
           id="path3025"
           d="m 523.75,439.93 h -30.46 l -0.93,-11.22 h 1.25 c 0.68,8.04 1.43,9.68 8.95,9.68 0.9,0 2.2,0 2.7,-0.11 1.05,-0.19 1.05,-0.74 1.05,-1.89 v -26.25 c 0,-1.71 0,-2.39 -5.24,-2.39 h -2 v -1.55 c 2.05,0.16 7.13,0.16 9.43,0.16 2.29,0 7.42,0 9.47,-0.16 v 1.55 h -2 c -5.24,0 -5.24,0.68 -5.24,2.39 v 26.25 c 0,1 0,1.7 0.91,1.89 0.54,0.11 1.89,0.11 2.84,0.11 7.52,0 8.27,-1.64 8.95,-9.68 h 1.25 z"
           inkscape:connector-curvature="0"
           style="fill:#000000;stroke-width:0" /><path
           id="path3027"
           d="m 525.06,399.29 0,-0.17 0,-0.15 0,-0.15 -0.01,-0.15 -0.01,-0.13 -0.01,-0.13 -0.02,-0.13 -0.02,-0.12 -0.03,-0.11 -0.04,-0.1 -0.04,-0.1 -0.05,-0.09 -0.06,-0.09 -0.07,-0.08 -0.08,-0.08 -0.09,-0.07 -0.1,-0.06 -0.11,-0.06 -0.06,-0.03 -0.07,-0.03 -0.07,-0.02 -0.07,-0.03 -0.07,-0.02 -0.08,-0.02 -0.08,-0.02 -0.09,-0.02 -0.08,-0.02 -0.1,-0.02 -0.09,-0.02 -0.1,-0.01 -0.11,-0.02 -0.11,-0.01 -0.11,-0.01 -0.12,-0.01 -0.12,-0.01 -0.13,-0.01 -0.13,-0.01 -0.14,-0.01 -0.14,0 -0.14,-0.01 -0.15,0 -0.16,-0.01 -0.16,0 -0.17,0 -0.17,0 -0.18,0 h -1.2 v -1.55 h 28.75 l 2.1,12.86 h -1.25 c -1.24,-7.67 -2.4,-11.31 -10.96,-11.31 h -6.62 c -2.35,0 -2.46,0.34 -2.46,1.98 v 13.31 h 4.49 c 4.84,0 5.39,-1.59 5.39,-5.83 h 1.23 v 13.21 h -1.23 c 0,-4.3 -0.55,-5.83 -5.39,-5.83 h -4.49 v 11.95 c 0,1.64 0.11,1.99 2.46,1.99 h 6.42 c 7.62,0 8.97,-2.74 9.76,-9.66 h 1.26 l -1.41,11.2 h -28.05 v -1.54 h 1.2 c 3.83,0 3.94,-0.55 3.94,-2.33 z"
           inkscape:connector-curvature="0"
           style="fill:#000000;stroke-width:0" /><path
           id="path3029"
           d="m 566.03,425.43 6.83,10.02 c 1.09,1.59 2.78,3.19 7.22,3.23 v 1.55 c -1.94,-0.05 -4.28,-0.16 -5.53,-0.16 -1.99,0 -4.39,0 -6.38,0.16 v -1.55 c 1.99,-0.04 3.1,-1.14 3.1,-2.29 0,-0.5 -0.11,-0.6 -0.46,-1.14 l -5.69,-8.43 -6.42,9.61 c -0.09,0.16 -0.34,0.57 -0.34,0.75 0,0.61 1.09,1.46 3.23,1.5 v 1.55 c -1.75,-0.16 -5.37,-0.16 -7.28,-0.16 -1.53,0 -4.62,0.05 -6.47,0.16 v -1.55 h 0.96 c 2.73,0 3.68,-0.34 4.62,-1.75 l 9.17,-13.84 -8.17,-12.06 c -0.7,-0.99 -2.19,-3.28 -7.22,-3.28 v -1.55 c 1.78,0.05 3.88,0.16 5.52,0.16 1.84,0 4.59,0 6.39,-0.16 v 1.55 c -2.3,0.04 -3.14,1.39 -3.14,2.29 0,0.44 0.14,0.64 0.5,1.19 l 7.06,10.47 7.88,-11.91 c 0.11,-0.2 0.25,-0.4 0.25,-0.54 0,-0.61 -1.1,-1.46 -3.24,-1.5 v -1.55 c 1.74,0.16 5.38,0.16 7.27,0.16 2.09,0 4.39,-0.07 6.48,-0.16 v 1.55 h -0.95 c -2.58,0 -3.63,0.25 -4.67,1.79 z"
           inkscape:connector-curvature="0"
           style="fill:#000000;stroke-width:0" /></g>    </g>
    <rect
       style="fill:none;stroke:#000000;stroke-width:3;stroke-linecap:butt;stroke-linejoin:miter;stroke-miterlimit:4;stroke-opacity:1;stroke-dasharray:none"
       id="rect3046"
       width="555.58392"
       height="102.02541"
       x="22.223356"
       y="770.5296"
       ry="10.714291" />
    <rect
       style="fill:none;stroke:#000000;stroke-width:3;stroke-linecap:butt;stroke-linejoin:miter;stroke-miterlimit:4;stroke-opacity:1;stroke-dasharray:none"
       id="rect3046-1"
       width="555.58392"
       height="102.02541"
       x="22.223356"
       y="660.92804"
       ry="10.714291" />
    <rect
       style="fill:none;stroke:#000000;stroke-width:3;stroke-linecap:butt;stroke-linejoin:miter;stroke-miterlimit:4;stroke-opacity:1;stroke-dasharray:none"
       id="rect3046-1-1"
       width="183.75742"
       height="102.02541"
       x="22.223356"
       y="548.29608"
       ry="10.714291" />
    <text
       xml:space="preserve"
       style="font-size:40px;font-style:normal;font-weight:normal;line-height:125%;letter-spacing:0px;word-spacing:0px;fill:#000000;fill-opacity:1;stroke:none;font-family:Sans"
       x="28.223356"
       y="609.91534"
       id="text3109"
       sodipodi:linespacing="125%"><tspan
         sodipodi:role="line"
         id="tspan3111"
         x="28.223356"
         y="609.91534">graphicx</tspan></text>
    <rect
       style="fill:none;stroke:#000000;stroke-width:3;stroke-linecap:butt;stroke-linejoin:miter;stroke-miterlimit:4;stroke-opacity:1;stroke-dasharray:none"
       id="rect3046-1-1-0"
       width="174.50653"
       height="102.02541"
       x="213.1422"
       y="547.28577"
       ry="10.714291" />
    <text
       xml:space="preserve"
       style="font-size:40px;font-style:normal;font-weight:normal;line-height:125%;letter-spacing:0px;word-spacing:0px;fill:#000000;fill-opacity:1;stroke:none;font-family:Sans;stroke-width:5;stroke-miterlimit:4;stroke-dasharray:none"
       x="236.72536"
       y="609.91534"
       id="text3109-5"
       sodipodi:linespacing="125%"><tspan
         sodipodi:role="line"
         id="tspan3111-6"
         x="236.72536"
         y="609.91534">BibTeX</tspan></text>
    <rect
       style="fill:none;stroke:#000000;stroke-width:3;stroke-linecap:butt;stroke-linejoin:miter;stroke-miterlimit:4;stroke-opacity:1;stroke-dasharray:none"
       id="rect3046-1-1-0-9"
       width="184.41418"
       height="102.02541"
       x="393.3931"
       y="547.28577"
       ry="10.714291" />
    <text
       xml:space="preserve"
       style="font-size:40px;font-style:normal;font-weight:normal;line-height:125%;letter-spacing:0px;word-spacing:0px;fill:#000000;fill-opacity:1;stroke:none;font-family:Sans"
       x="461.19495"
       y="609.91534"
       id="text3109-5-4"
       sodipodi:linespacing="125%"><tspan
         sodipodi:role="line"
         id="tspan3111-6-2"
         x="461.19495"
         y="609.91534">...</tspan></text>
  </g>
</svg>
